<svg xmlns="http://www.w3.org/2000/svg" viewBox="0 0 325.43095 120.59324"><title>navLogo</title><path d="M58.25958,81.07451c-7.33337-2.03705-17.926-7.33337-23.22235-17.51861a61.09177,61.09177,0,0,0-13.0371,7.74079l52.14843,28.92607s.81483.40741.81483-.4074c0,0,0-.81482,2.037-35.44464,0-1.62965-.40741-3.25928-2.037-4.0741a4.32882,4.32882,0,0,0-3.25928-.4074A5.74229,5.74229,0,0,0,67.63,64.37072C66.81518,69.667,63.5559,82.29675,58.25958,81.07451ZM92.482,68.44482c.40741,10.59264-5.70373,33.815-20.37048,39.11131-.40741,0-1.22223.40741-1.62964,0-24.852-3.25927-48.07434-15.48156-55.0003-30.96312A109.68586,109.68586,0,0,0,4.48151,89.63012c15.889,10.59264,36.25945,23.22235,50.51879,30.55572.40741.4074.81482.4074,1.62964.4074,43.59283-5.70374,62.33367-59.48181,65.18554-68.44481a1.4967,1.4967,0,0,0-.40741-1.22223L96.9635,40.741c-4.48151-2.037-9.77783,1.22223-10.59266,6.11115v2.037a7.51679,7.51679,0,0,0,2.037,4.88891C89.63012,55.4077,92.07458,59.4818,92.482,68.44482Zm13.85192-53.37066L72.92632,0H71.7041L50.51879,15.07416s-.81482.4074,0,.4074H65.593a.87625.87625,0,0,1,.81482.81483L67.63,28.11127s0,.81482-.81482.4074L46.4447,19.96308a1.4967,1.4967,0,0,0-1.22223.4074L27.70385,55.40772c2.44446,0,4.48151.4074,6.926.4074,6.926-11.40746,19.55567-15.889,26.48163-15.889H63.5559a22.01428,22.01428,0,0,1,13.85192,7.33337l.40741.4074v-2.037l.81482-13.85194v-.81482l.81483-15.48156a.87626.87626,0,0,1,.81482-.81483l26.07421.40744C106.33391,15.48156,107.14874,15.48156,106.33391,15.07416ZM52.55584,47.66693A11.84294,11.84294,0,0,0,41.14837,56.63c6.926,1.22222,11.40747,2.44445,11.40747,2.44445A35.14866,35.14866,0,0,0,41.14837,60.704,11.65836,11.65836,0,0,0,64.37072,59.0744C64.37073,52.96325,59.0744,48.07433,52.55584,47.66693ZM30.96313,4.4815H.81482A.87624.87624,0,0,0,0,5.29632H0V59.0744c4.88892-2.037,10.18524-2.85187,15.889-3.25928C21.1853,32.59277,31.778,5.29632,31.778,5.29632A.798.798,0,0,0,30.96313,4.4815ZM52.55584,47.66693A11.84294,11.84294,0,0,0,41.14837,56.63c6.926,1.22222,11.40747,2.44445,11.40747,2.44445A35.14866,35.14866,0,0,0,41.14837,60.704,11.65836,11.65836,0,0,0,64.37072,59.0744C64.37073,52.96325,59.0744,48.07433,52.55584,47.66693Zm0,0A11.84294,11.84294,0,0,0,41.14837,56.63c6.926,1.22222,11.40747,2.44445,11.40747,2.44445A35.14866,35.14866,0,0,0,41.14837,60.704,11.65836,11.65836,0,0,0,64.37072,59.0744C64.37073,52.96325,59.0744,48.07433,52.55584,47.66693Z" style="fill:#00DBED"/><path d="M152.75383,118.98966l-8.9329-13.0375v13.0375h-8.28622V90.59515h8.28622v12.80926l8.81878-12.80926h9.50257l-9.80689,13.87438,10.11121,14.52013Z" style="fill:#00DBED"/><path d="M161.414,104.77385c0-8.78074,6.65235-14.90053,15.09073-14.90053,8.51446,0,15.0898,6.11979,15.0898,14.90053s-6.57534,14.93764-15.0898,14.93764C168.02826,119.71149,161.414,113.55458,161.414,104.77385Zm21.81824,0c0-4.71325-3.3067-7.37419-6.72751-7.37419-3.45885,0-6.72843,2.66094-6.72843,7.37419,0,4.75035,3.26958,7.41129,6.72843,7.41129C179.92549,112.18514,183.23219,109.5242,183.23219,104.77385Z" style="fill:#00DBED"/><path d="M195.122,90.59515h8.28715v20.90713H214.5465v7.48738H195.122Z" style="fill:#00DBED"/><path d="M217.73258,90.59515h8.28714v20.90713h11.13736v7.48738h-19.4245Z" style="fill:#00DBED"/><path d="M266.38105,118.98966h-7.90489l-10.22626-15.242h-.03711v15.242h-7.86963V90.59515h7.90674l10.22626,14.97661h.03711V90.59515h7.86778Z" style="fill:#00DBED"/><path d="M290.39818,118.98966l-1.863-5.58724h-9.38938l-1.787,5.58724h-8.58961l10.2244-28.39451h9.61762l10.41553,28.39451Zm-9.124-12.23959h5.05654l-2.54775-7.75459Z" style="fill:#00DBED"/><path d="M299.9694,107.43479V90.59515h8.28715v16.76356c0,3.15453,1.55871,4.82643,4.2178,4.82643,2.737,0,4.3347-1.6719,4.3347-4.8654V90.59515h8.32425v16.83964c0,7.14594-4.78932,12.2767-12.659,12.2767C304.64554,119.71149,299.9694,114.58073,299.9694,107.43479Z" style="fill:#00DBED"/><path d="M180.50472,80.06754,157.17586,46.01772V80.06754H135.53471V5.91212h21.64115V39.36577L180.20663,5.91212H205.025L179.4127,42.146l26.40618,37.92156Z" style="fill:#00DBED"/><path d="M217.72639,61.90118c6.35338,0,10.32449-3.9716,10.32449-11.51539V5.91212h21.64066V53.06519c0,16.47963-9.43023,28.39246-27.39884,28.39246a27.02182,27.02182,0,0,1-15.486-4.66567V56.63933C209.884,59.91586,213.45768,61.90118,217.72639,61.90118Z" style="fill:#00DBED"/><path d="M298.32971,62.49638a17.607,17.607,0,0,0,7.54477-1.68771v-20.648H325.431v33.156A46.05947,46.05947,0,0,1,297.93323,81.954c-21.34306,0-39.70912-14.99065-39.70912-38.9152,0-23.92357,18.56382-39.0131,39.70912-39.0131a47.09592,47.09592,0,0,1,23.8247,5.95594v20.8477c-6.35338-5.06313-14.39447-6.75084-20.648-6.75084-13.30294,0-21.04545,8.835-21.04545,19.4576C280.06447,54.35641,287.70811,62.49638,298.32971,62.49638Z" style="fill:#00DBED"/></svg>